<svg width="52" height="45" viewBox="0 0 52 45" fill="none" xmlns="http://www.w3.org/2000/svg">
<path d="M20.2349 2.19114L25.7674 14.0655C26.0874 14.7521 26.0916 15.5474 25.7795 16.2374L13.8999 42.4877C13.3044 43.8039 12.0107 44.6469 10.5867 44.6469H1.44845C0.393779 44.6469 -0.306494 43.5356 0.133763 42.5602L18.349 2.20292C18.7178 1.38558 19.8565 1.37876 20.2349 2.19114Z" fill="white"/>
<path d="M50.7138 0.0307401L38.1571 3.09995C37.4312 3.27748 36.8199 3.77321 36.488 4.45361L23.8609 30.3398C23.2279 31.6377 23.3947 33.1919 24.2883 34.32L30.0236 41.5598C30.6855 42.3954 31.9752 42.2526 32.445 41.2918L51.8885 1.53219C52.2821 0.727243 51.573 -0.179327 50.7138 0.0307401Z" fill="white"/>
</svg>
