<svg width="40" height="34" viewBox="0 0 40 34" fill="none" xmlns="http://www.w3.org/2000/svg">
<path d="M15.5653 1.65626L19.821 10.6322C20.0672 11.1511 20.0705 11.7524 19.8304 12.2739L10.6922 32.1167C10.2341 33.1116 9.23898 33.7488 8.14361 33.7488H1.11419C0.302907 33.7488 -0.235765 32.9087 0.102895 32.1715L14.1146 1.66516C14.3983 1.04733 15.2742 1.04218 15.5653 1.65626Z" fill="#F96221"/>
<path d="M39.0106 0.0232366L29.3515 2.34327C28.7932 2.47746 28.3229 2.85219 28.0676 3.36651L18.3545 22.9341C17.8676 23.9151 17.9959 25.0899 18.6833 25.9426L23.095 31.4153C23.6042 32.0469 24.5963 31.939 24.9576 31.2127L39.9142 1.15819C40.217 0.549727 39.6715 -0.135554 39.0106 0.0232366Z" fill="#F96221"/>
</svg>
