<svg width="84" height="84" viewBox="0 0 84 84" fill="none" xmlns="http://www.w3.org/2000/svg">
<path d="M59.5 45.5H42V28M17.5 12.25L24.5 7M66.5 12.25L59.5 7" stroke="white" stroke-width="5" stroke-linecap="round" stroke-linejoin="round"/>
<path d="M42 77C46.1366 77 50.2328 76.1852 54.0545 74.6022C57.8763 73.0192 61.3488 70.6989 64.2739 67.7739C67.1989 64.8488 69.5192 61.3763 71.1022 57.5545C72.6852 53.7328 73.5 49.6366 73.5 45.5C73.5 41.3634 72.6852 37.2672 71.1022 33.4455C69.5192 29.6237 67.1989 26.1512 64.2739 23.2261C61.3488 20.3011 57.8763 17.9808 54.0545 16.3978C50.2328 14.8148 46.1366 14 42 14C33.6457 14 25.6335 17.3187 19.7261 23.2261C13.8187 29.1335 10.5 37.1457 10.5 45.5C10.5 53.8543 13.8187 61.8665 19.7261 67.7739C25.6335 73.6813 33.6457 77 42 77Z" stroke="white" stroke-width="5" stroke-linecap="round" stroke-linejoin="round"/>
</svg>
