<svg width="22" height="22" viewBox="0 0 22 22" fill="none" xmlns="http://www.w3.org/2000/svg">
<g id="Frame">
<path id="Vector" d="M11.0001 13.7499C11.7294 13.7499 12.4289 13.4601 12.9446 12.9444C13.4603 12.4287 13.7501 11.7292 13.7501 10.9999C13.7501 10.2705 13.4603 9.57106 12.9446 9.05533C12.4289 8.53961 11.7294 8.24988 11.0001 8.24988C10.2707 8.24988 9.57124 8.53961 9.05552 9.05533C8.53979 9.57106 8.25006 10.2705 8.25006 10.9999C8.25006 11.7292 8.53979 12.4287 9.05552 12.9444C9.57124 13.4601 10.2707 13.7499 11.0001 13.7499Z" stroke="black" stroke-width="1.5" stroke-linecap="round" stroke-linejoin="round"/>
<path id="Vector_2" d="M17.9869 9.52867L16.9813 7.0995L18.3334 5.49992L16.5 3.66659L14.9096 5.026L12.4282 4.00575L11.8571 1.83325H10.066L9.48662 4.03417L7.06204 5.05625L5.50004 3.66659L3.66671 5.49992L4.99862 7.13984L4.00862 9.57542L1.83337 10.0833V11.9166L4.03429 12.517L5.05637 14.9416L3.66671 16.4999L5.50004 18.3333L7.14179 16.9949L9.53062 17.9776L10.0834 20.1666H11.9167L12.4704 17.9785L14.9005 16.972C15.3056 17.2617 16.5 18.3333 16.5 18.3333L18.3334 16.4999L16.973 14.8958L17.9795 12.4648L20.1667 11.8964V10.0833L17.9869 9.52867Z" stroke="black" stroke-width="1.5" stroke-linecap="round" stroke-linejoin="round"/>
</g>
</svg>
