<svg width="267" height="35" viewBox="0 0 267 35" fill="none" xmlns="http://www.w3.org/2000/svg">
<path opacity="0.35" d="M241.27 16.5193C241.27 15.3183 242.243 14.3446 243.444 14.3446H251.811C253.012 14.3446 253.986 15.3183 253.986 16.5193V18.2338C253.986 19.4349 253.012 20.4085 251.811 20.4085H243.444C242.243 20.4085 241.27 19.4349 241.27 18.2338V16.5193Z" stroke="white"/>
<path opacity="0.4" d="M255.111 16.1293V18.6237C255.613 18.4124 255.939 17.921 255.939 17.3765C255.939 16.832 255.613 16.3405 255.111 16.1293Z" fill="white"/>
<path d="M242.015 16.4288C242.015 15.6897 242.614 15.0905 243.353 15.0905H251.902C252.641 15.0905 253.24 15.6897 253.24 16.4288V18.3254C253.24 19.0645 252.641 19.6636 251.902 19.6636H243.353C242.614 19.6636 242.015 19.0645 242.015 18.3254V16.4288Z" fill="white"/>
<path fill-rule="evenodd" clip-rule="evenodd" d="M232.867 15.261C234.249 15.261 235.578 15.792 236.58 16.7441C236.655 16.8176 236.775 16.8167 236.85 16.742L237.571 16.0145C237.608 15.9766 237.629 15.9253 237.629 15.872C237.629 15.8186 237.607 15.7676 237.569 15.7301C234.94 13.2111 230.794 13.2111 228.165 15.7301C228.127 15.7675 228.105 15.8186 228.105 15.8719C228.105 15.9253 228.126 15.9766 228.163 16.0145L228.884 16.742C228.958 16.8168 229.079 16.8177 229.154 16.7441C230.156 15.7919 231.485 15.261 232.867 15.261ZM232.867 17.628C233.627 17.628 234.359 17.9102 234.922 18.4198C234.998 18.4921 235.118 18.4905 235.192 18.4163L235.912 17.6887C235.95 17.6506 235.971 17.5988 235.97 17.545C235.97 17.4912 235.948 17.4399 235.909 17.4025C234.195 15.8083 231.541 15.8083 229.827 17.4025C229.789 17.4399 229.766 17.4912 229.766 17.545C229.765 17.5988 229.787 17.6506 229.825 17.6887L230.544 18.4163C230.619 18.4905 230.739 18.4921 230.815 18.4198C231.377 17.9105 232.109 17.6283 232.867 17.628ZM234.31 19.2208C234.311 19.2748 234.29 19.3268 234.251 19.3646L233.006 20.6216C232.969 20.6585 232.919 20.6793 232.867 20.6793C232.815 20.6793 232.766 20.6585 232.729 20.6216L231.483 19.3646C231.445 19.3268 231.424 19.2747 231.425 19.2208C231.426 19.1668 231.449 19.1158 231.489 19.0796C232.285 18.4068 233.45 18.4068 234.245 19.0796C234.285 19.1158 234.309 19.1669 234.31 19.2208Z" fill="white"/>
<path fill-rule="evenodd" clip-rule="evenodd" d="M224.346 14.0503H223.723C223.378 14.0503 223.099 14.3295 223.099 14.6739V20.0785C223.099 20.4229 223.378 20.7021 223.723 20.7021H224.346C224.691 20.7021 224.97 20.4229 224.97 20.0785V14.6739C224.97 14.3295 224.691 14.0503 224.346 14.0503ZM220.812 15.506H221.436C221.78 15.506 222.06 15.7852 222.06 16.1296V20.0791C222.06 20.4235 221.78 20.7027 221.436 20.7027H220.812C220.468 20.7027 220.189 20.4235 220.189 20.0791V16.1296C220.189 15.7852 220.468 15.506 220.812 15.506ZM218.526 16.9607H217.902C217.558 16.9607 217.279 17.2399 217.279 17.5843V20.0787C217.279 20.4232 217.558 20.7024 217.902 20.7024H218.526C218.87 20.7024 219.15 20.4232 219.15 20.0787V17.5843C219.15 17.2399 218.87 16.9607 218.526 16.9607ZM215.616 18.2073H214.992C214.648 18.2073 214.369 18.4865 214.369 18.8309V20.0781C214.369 20.4225 214.648 20.7017 214.992 20.7017H215.616C215.96 20.7017 216.239 20.4225 216.239 20.0781V18.8309C216.239 18.4865 215.96 18.2073 215.616 18.2073Z" fill="white"/>
<path d="M28.9533 21.8703C31.2311 21.8703 32.5841 20.1579 32.5841 17.2583C32.5841 16.1664 32.3669 15.2476 31.9511 14.5376C31.349 13.4338 30.3125 12.8371 29.003 12.8371C27.0541 12.8371 25.6762 14.0961 25.6762 15.8621C25.6762 17.5208 26.9176 18.726 28.6244 18.726C29.6733 18.726 30.5236 18.2546 30.9456 17.4372H30.9642C30.9642 17.4372 30.9891 17.4372 30.9953 17.4372C31.0077 17.4372 31.0511 17.4372 31.0511 17.4372C31.0511 19.4062 30.2753 20.5815 28.9657 20.5815C28.1961 20.5815 27.6003 20.1758 27.3955 19.5255H25.8004C26.0673 20.9395 27.3148 21.8703 28.9533 21.8703ZM29.0092 17.5029C27.9789 17.5029 27.2465 16.7988 27.2465 15.8144C27.2465 14.8538 28.0161 14.1199 29.0154 14.1199C30.0146 14.1199 30.7842 14.8657 30.7842 15.8382C30.7842 16.7988 30.0333 17.5029 29.0092 17.5029Z" fill="white"/>
<path d="M35.2036 21.7868C35.7932 21.7868 36.1966 21.381 36.1966 20.8441C36.1966 20.3011 35.7932 19.9014 35.2036 19.9014C34.6201 19.9014 34.2105 20.3011 34.2105 20.8441C34.2105 21.381 34.6201 21.7868 35.2036 21.7868ZM35.2036 17.312C35.7932 17.312 36.1966 16.9122 36.1966 16.3752C36.1966 15.8323 35.7932 15.4325 35.2036 15.4325C34.6201 15.4325 34.2105 15.8323 34.2105 16.3752C34.2105 16.9122 34.6201 17.312 35.2036 17.312Z" fill="white"/>
<path d="M42.0062 21.6615H43.5392V20.0565H44.7495V18.7558H43.5392V13.0519H41.28C39.6974 15.343 38.4374 17.2583 37.6306 18.6842V20.0565H42.0062V21.6615ZM39.1139 18.7021C40.1566 16.9361 41.0876 15.522 41.9441 14.3049H42.031V18.7916H39.1139V18.7021Z" fill="white"/>
<path d="M48.1633 21.6615H49.7646V13.0519H48.1696L45.8297 14.6271V16.1067L48.0578 14.6032H48.1633V21.6615Z" fill="white"/>
</svg>
