<svg width="18" height="20" viewBox="0 0 18 20" fill="none" xmlns="http://www.w3.org/2000/svg">
<path d="M0.769481 5.38462L3.96036 7.23077M3.96036 7.23077L8.97461 10M3.96036 7.23077L0.769481 8.15385M3.96036 7.23077L3.50452 4M17.1797 14.6154L13.9889 12.7692M13.9889 12.7692L8.97461 10M13.9889 12.7692L14.4447 16M13.9889 12.7692L17.1797 11.8462M8.97461 10L3.96036 12.7692M8.97461 10V3.53846M8.97461 10V16M8.97461 10L13.9889 7.23077M3.96036 12.7692L0.769481 14.6154M3.96036 12.7692L0.769481 11.8462M3.96036 12.7692L3.50452 16M8.97461 3.53846V0.769231M8.97461 3.53846L6.69541 2.61538M8.97461 3.53846L11.2538 2.61538M8.97461 16V19.2308M8.97461 16L11.2538 17.3846M8.97461 16L6.69541 17.3846M13.9889 7.23077L17.1797 5.38462M13.9889 7.23077L17.1797 8.15385M13.9889 7.23077L14.4447 4" stroke="white" stroke-width="1.5" stroke-linecap="round" stroke-linejoin="round"/>
</svg>
