<svg width="84" height="84" viewBox="0 0 84 84" fill="none" xmlns="http://www.w3.org/2000/svg">
<path d="M70 35C70 50.463 42 77 42 77C42 77 14 50.463 14 35C14 27.5739 16.95 20.452 22.201 15.201C27.452 9.94999 34.5739 7 42 7C49.4261 7 56.548 9.94999 61.799 15.201C67.05 20.452 70 27.5739 70 35Z" stroke="white" stroke-width="5"/>
<path d="M42 38.5C42.9283 38.5 43.8185 38.1313 44.4749 37.4749C45.1313 36.8185 45.5 35.9283 45.5 35C45.5 34.0717 45.1313 33.1815 44.4749 32.5251C43.8185 31.8687 42.9283 31.5 42 31.5C41.0717 31.5 40.1815 31.8687 39.5251 32.5251C38.8687 33.1815 38.5 34.0717 38.5 35C38.5 35.9283 38.8687 36.8185 39.5251 37.4749C40.1815 38.1313 41.0717 38.5 42 38.5Z" fill="white" stroke="white" stroke-width="5" stroke-linecap="round" stroke-linejoin="round"/>
</svg>
