<svg width="84" height="84" viewBox="0 0 84 84" fill="none" xmlns="http://www.w3.org/2000/svg">
<path d="M66.5 56.4375C64.736 59.9025 61.803 62.916 58.0685 65.191L59.766 70.791C59.8611 71.1047 59.8814 71.4363 59.8253 71.7593C59.7692 72.0823 59.6383 72.3876 59.443 72.6509C59.2478 72.9142 58.9936 73.1282 58.7008 73.2756C58.408 73.423 58.0848 73.4999 57.757 73.5H51.583C51.1286 73.5 50.6865 73.3526 50.323 73.08L45.4405 69.4155H36.911L32.0285 73.08C31.665 73.3526 31.2229 73.5 30.7685 73.5H24.5945C24.2667 73.4999 23.9435 73.423 23.6507 73.2756C23.3579 73.1282 23.1037 72.9142 22.9085 72.6509C22.7132 72.3876 22.5823 72.0823 22.5262 71.7593C22.4701 71.4363 22.4904 71.1047 22.5855 70.791L24.283 65.191C18.018 61.3725 14 55.4715 14 48.853C14 37.338 26.166 28 41.1775 28C44.219 28 48.02 29.043 50.75 29.75L66.5 24.5L66.206 37.198L73.5 40.25V52.5L66.759 56" stroke="white" stroke-width="5" stroke-linecap="round" stroke-linejoin="round"/>
<path d="M54.25 45.5C53.7859 45.5 53.3408 45.3156 53.0126 44.9874C52.6844 44.6592 52.5 44.2141 52.5 43.75C52.5 43.2859 52.6844 42.8408 53.0126 42.5126C53.3408 42.1844 53.7859 42 54.25 42C54.7141 42 55.1592 42.1844 55.4874 42.5126C55.8156 42.8408 56 43.2859 56 43.75C56 44.2141 55.8156 44.6592 55.4874 44.9874C55.1592 45.3156 54.7141 45.5 54.25 45.5Z" fill="white" stroke="white" stroke-width="4" stroke-linecap="round" stroke-linejoin="round"/>
<path d="M7 35C7 35 7 43.4 14 45.5" stroke="white" stroke-width="5" stroke-linecap="round" stroke-linejoin="round"/>
<path d="M44.8 27.1355C45.255 25.8335 45.5 24.4335 45.5 22.9775C45.5 16.086 40.0155 10.5 33.25 10.5C26.4845 10.5 21 16.086 21 22.9775C21 26.271 22.253 29.2705 24.304 31.5" stroke="white" stroke-width="5" stroke-linejoin="round"/>
</svg>
