<svg width="84" height="84" viewBox="0 0 84 84" fill="none" xmlns="http://www.w3.org/2000/svg">
<path d="M52.5 14V7M52.5 14V21M52.5 14H36.75M10.5 35V66.5C10.5 68.3565 11.2375 70.137 12.5503 71.4497C13.863 72.7625 15.6435 73.5 17.5 73.5H66.5C68.3565 73.5 70.137 72.7625 71.4497 71.4497C72.7625 70.137 73.5 68.3565 73.5 66.5V35M10.5 35H73.5M10.5 35V21C10.5 19.1435 11.2375 17.363 12.5503 16.0503C13.863 14.7375 15.6435 14 17.5 14H24.5M73.5 35V21C73.5 19.1435 72.7625 17.363 71.4497 16.0503C70.137 14.7375 68.3565 14 66.5 14H64.75M24.5 7V21" stroke="white" stroke-width="5" stroke-linecap="round" stroke-linejoin="round"/>
</svg>
