<svg width="422" height="909" viewBox="0 0 422 909" fill="none" xmlns="http://www.w3.org/2000/svg">
<mask id="mask0_0_6" style="mask-type:alpha" maskUnits="userSpaceOnUse" x="0" y="0" width="422" height="909">
<path d="M55.064 0.000812628C56.648 0.000812628 73.9282 0.000812628 92.4532 0.000812628C96.532 0.000812628 97.8916 3.39686 97.8916 7.4739C97.8916 25.8161 110.128 33.9694 121.345 33.9694C191.025 33.9694 227.683 33.9686 298.433 33.9686C313.389 33.9686 323.586 24.4574 323.586 8.15246C323.586 3.39686 324.946 0 329.704 0C337.522 0 353.567 0.00108177 364.374 0.000812628C397.005 0 421.478 15.9652 421.478 58.4268V847.856C421.478 883.862 407.202 909 364.034 909C289.161 909 138.699 909 59.1428 909C11.8965 909 0 881.145 7.09089e-05 847.856C0.000384219 700.772 0 321.571 0 57.7474C0 20.382 21.7537 0.000812628 55.064 0.000812628Z" fill="#C4C4C4"/>
</mask>
<g mask="url(#mask0_0_6)">
<path d="M0 -0.000732643H421.478V908.998H0V-0.000732643Z" fill="#F9F9F9"/>
</g>
</svg>
