<svg width="32" height="32" viewBox="0 0 32 32" fill="none" xmlns="http://www.w3.org/2000/svg">
<path d="M16.0468 18.3863C16.7808 18.3863 17.4848 18.0947 18.0039 17.5756C18.523 17.0566 18.8146 16.3526 18.8146 15.6185C18.8146 14.8844 18.523 14.1804 18.0039 13.6614C17.4848 13.1423 16.7808 12.8507 16.0468 12.8507C15.3127 12.8507 14.6087 13.1423 14.0897 13.6614C13.5706 14.1804 13.279 14.8844 13.279 15.6185C13.279 16.3526 13.5706 17.0566 14.0897 17.5756C14.6087 18.0947 15.3127 18.3863 16.0468 18.3863Z" stroke="white" stroke-width="1.5" stroke-linecap="round" stroke-linejoin="round"/>
<path d="M23.0788 14.1377L22.0667 11.6928L23.4275 10.0829L21.5824 8.23769L19.9816 9.60591L17.4842 8.57906L16.9094 6.3925H15.1066L14.5235 8.60766L12.0833 9.63635L10.5112 8.23769L8.66597 10.0829L10.0065 11.7334L9.0101 14.1848L6.82077 14.6959V16.5411L9.03593 17.1454L10.0646 19.5857L8.66597 21.1541L10.5112 22.9993L12.1635 21.6523L14.5678 22.6413L15.1242 24.8445H16.9694L17.5266 22.6422L19.9724 21.6292C20.3802 21.9208 21.5824 22.9993 21.5824 22.9993L23.4275 21.1541L22.0584 19.5395L23.0714 17.0928L25.2727 16.5208V14.6959L23.0788 14.1377Z" stroke="white" stroke-width="1.5" stroke-linecap="round" stroke-linejoin="round"/>
</svg>
