<svg width="390" height="44" viewBox="0 0 390 44" fill="none" xmlns="http://www.w3.org/2000/svg">
<path opacity="0.35" d="M360.833 19.6693C360.833 18.4727 361.803 17.5027 363 17.5027H379.667C380.863 17.5027 381.833 18.4727 381.833 19.6694V25.6694C381.833 26.866 380.863 27.836 379.667 27.836H363C361.803 27.836 360.833 26.866 360.833 25.6694V19.6693Z" stroke="black"/>
<path opacity="0.4" d="M383.333 20.6694V24.6694C384.138 24.3307 384.661 23.5426 384.661 22.6694C384.661 21.7963 384.138 21.0082 383.333 20.6694Z" fill="black"/>
<path d="M362.333 20.336C362.333 19.5996 362.93 19.0027 363.667 19.0027H379C379.736 19.0027 380.333 19.5996 380.333 20.336V25.0027C380.333 25.7391 379.736 26.336 379 26.336H363.667C362.93 26.336 362.333 25.7391 362.333 25.0027V20.336Z" fill="black"/>
<path fill-rule="evenodd" clip-rule="evenodd" d="M347.664 19.2773C349.88 19.2774 352.011 20.1289 353.617 21.6557C353.738 21.7735 353.931 21.772 354.05 21.6523L355.206 20.4857C355.266 20.4249 355.3 20.3427 355.299 20.2571C355.299 20.1715 355.264 20.0897 355.203 20.0297C350.988 15.9901 344.338 15.9901 340.123 20.0297C340.062 20.0896 340.028 20.1715 340.027 20.257C340.027 20.3426 340.06 20.4249 340.12 20.4857L341.277 21.6523C341.396 21.7722 341.589 21.7737 341.71 21.6557C343.316 20.1288 345.448 19.2773 347.664 19.2773ZM347.664 23.073C348.881 23.0729 350.055 23.5255 350.958 24.3427C351.08 24.4586 351.272 24.4561 351.391 24.337L352.546 23.1703C352.607 23.1091 352.64 23.0261 352.639 22.9399C352.638 22.8536 352.603 22.7713 352.541 22.7113C349.793 20.1549 345.537 20.1549 342.789 22.7113C342.727 22.7713 342.691 22.8536 342.69 22.9399C342.69 23.0262 342.723 23.1092 342.784 23.1703L343.939 24.337C344.058 24.4561 344.25 24.4586 344.372 24.3427C345.274 23.526 346.447 23.0735 347.664 23.073ZM349.977 25.6268C349.978 25.7133 349.944 25.7967 349.883 25.8573L347.885 27.873C347.827 27.9322 347.747 27.9656 347.664 27.9656C347.58 27.9656 347.501 27.9322 347.442 27.873L345.444 25.8573C345.383 25.7967 345.349 25.7132 345.351 25.6267C345.352 25.5402 345.39 25.4583 345.454 25.4003C346.73 24.3214 348.598 24.3214 349.873 25.4003C349.938 25.4584 349.975 25.5403 349.977 25.6268Z" fill="black"/>
<path fill-rule="evenodd" clip-rule="evenodd" d="M334 17.3359H333C332.448 17.3359 332 17.7837 332 18.3359V27.0026C332 27.5549 332.448 28.0026 333 28.0026H334C334.552 28.0026 335 27.5549 335 27.0026V18.3359C335 17.7837 334.552 17.3359 334 17.3359ZM328.333 19.6693H329.333C329.886 19.6693 330.333 20.117 330.333 20.6693V27.0026C330.333 27.5549 329.886 28.0026 329.333 28.0026H328.333C327.781 28.0026 327.333 27.5549 327.333 27.0026V20.6693C327.333 20.117 327.781 19.6693 328.333 19.6693ZM324.667 22.0026H323.667C323.114 22.0026 322.667 22.4503 322.667 23.0026V27.0026C322.667 27.5549 323.114 28.0026 323.667 28.0026H324.667C325.219 28.0026 325.667 27.5549 325.667 27.0026V23.0026C325.667 22.4503 325.219 22.0026 324.667 22.0026ZM320 24.0026H319C318.448 24.0026 318 24.4503 318 25.0026V27.0026C318 27.5549 318.448 28.0026 319 28.0026H320C320.552 28.0026 321 27.5549 321 27.0026V25.0026C321 24.4503 320.552 24.0026 320 24.0026Z" fill="black"/>
<path d="M31.3534 29C34.3793 29 36.1767 26.7252 36.1767 22.8732C36.1767 21.4227 35.8882 20.2021 35.3357 19.2589C34.536 17.7926 33.159 17 31.4193 17C28.8304 17 27 18.6724 27 21.0185C27 23.2219 28.649 24.823 30.9164 24.823C32.3098 24.823 33.4394 24.1968 34 23.111H34.0248C34.0248 23.111 34.0578 23.111 34.066 23.111C34.0825 23.111 34.1402 23.111 34.1402 23.111C34.1402 25.7266 33.1096 27.288 31.3699 27.288C30.3475 27.288 29.556 26.749 29.2839 25.8851H27.1649C27.5194 27.7635 29.1767 29 31.3534 29ZM31.4276 23.1982C30.0589 23.1982 29.086 22.2629 29.086 20.9551C29.086 19.679 30.1084 18.7041 31.4358 18.7041C32.7633 18.7041 33.7857 19.6948 33.7857 20.9868C33.7857 22.2629 32.788 23.1982 31.4276 23.1982Z" fill="black"/>
<path d="M39.6565 28.889C40.4397 28.889 40.9757 28.3501 40.9757 27.6367C40.9757 26.9155 40.4397 26.3844 39.6565 26.3844C38.8814 26.3844 38.3373 26.9155 38.3373 27.6367C38.3373 28.3501 38.8814 28.889 39.6565 28.889ZM39.6565 22.9445C40.4397 22.9445 40.9757 22.4135 40.9757 21.7001C40.9757 20.9789 40.4397 20.4478 39.6565 20.4478C38.8814 20.4478 38.3373 20.9789 38.3373 21.7001C38.3373 22.4135 38.8814 22.9445 39.6565 22.9445Z" fill="black"/>
<path d="M48.6934 28.7226H50.7299V26.5905H52.3377V24.8626H50.7299V17.2853H47.7287C45.6262 20.3289 43.9525 22.8732 42.8806 24.7675V26.5905H48.6934V28.7226ZM44.8512 24.7913C46.2363 22.4452 47.4731 20.5667 48.6109 18.9498H48.7263V24.9102H44.8512V24.7913Z" fill="black"/>
<path d="M56.8728 28.7226H59V17.2853H56.881L53.7726 19.3778V21.3435L56.7326 19.3461H56.8728V28.7226Z" fill="black"/>
</svg>
